# xmcd
#
# Track frame offsets: 
#        150
#        25863
#        50024
#        70686
#        91110
#        112388
#        143387
#        173626
#        186912
#        208862
#        233265
#
# Disc length: 3423 seconds
#
# Revision: 6
# Processed by: cddbd v1.5.2PL0 Copyright (c) Steve Scherf et al.
# Submitted via: ExactAudioCopy v1.1
#
DISCID=8e0d5d0b
DTITLE=Jeff Buckley - Grace
DYEAR=1994
DGENRE=Pop Rock
TTITLE0=Mojo Pin
TTITLE1=Grace
TTITLE2=Last Goodbye
TTITLE3=Lilac Wine
TTITLE4=So Real
TTITLE5=Hallelujah
TTITLE6=Lover, You Should've Come Over
TTITLE7=Corpus Christi Carol
TTITLE8=Eternal Life
TTITLE9=Dream Brother
TTITLE10=Forget Her
EXTD=
EXTT0=
EXTT1=
EXTT2=
EXTT3=
EXTT4=
EXTT5=
EXTT6=
EXTT7=
EXTT8=
EXTT9=
EXTT10=
PLAYORDER=
